<?xml version="1.0" encoding="iso-8859-1"?>
<!-- Generator: Adobe Illustrator 16.0.0, SVG Export Plug-In . SVG Version: 6.00 Build 0)  -->
<!DOCTYPE svg PUBLIC "-//W3C//DTD SVG 1.1//EN" "http://www.w3.org/Graphics/SVG/1.1/DTD/svg11.dtd">
<svg version="1.1" id="Capa_1" xmlns="http://www.w3.org/2000/svg" xmlns:xlink="http://www.w3.org/1999/xlink" x="0px" y="0px"
	 width="95.786px" height="95.787px" viewBox="0 0 95.786 95.787" style="enable-background:new 0 0 95.786 95.787;"
	 xml:space="preserve">
<g>
	<path d="M47.893,0C21.484,0,0,21.489,0,47.893c0,26.409,21.484,47.894,47.893,47.894c26.409,0,47.894-21.484,47.894-47.894
		C95.786,21.489,74.302,0,47.893,0z M64.199,48.836c-0.071-1.619-0.739-2.883-0.988-3.99c-0.661-2.202-1.044-3.467-1.044-3.467
		s0.469,1.234,1.3,3.378c0.332,1.1,1.096,2.347,1.294,3.959c0.301,1.583,0.644,3.39,1.02,5.34c0.086,1.999,0.185,4.161,0.274,6.454
		c-0.209,2.27-0.346,4.695-0.664,7.18c-0.534,2.443-0.859,5.038-1.602,7.55c-0.753,2.525-1.39,5.133-2.389,7.604
		c-0.682,1.91-1.438,3.765-2.218,5.605c-1.472,0.411-2.98,0.736-4.511,0.986c1.387-2.499,2.731-5.041,3.874-7.728
		c1.153-2.334,1.94-4.791,2.848-7.18c0.903-2.396,1.393-4.859,2.087-7.193c0.482-2.382,0.777-4.716,1.15-6.916
		c0.068-2.229,0.13-4.343,0.201-6.283C64.597,52.195,64.381,50.416,64.199,48.836z M66.205,85.787
		c0.862-0.753,1.731-1.55,2.587-2.413c3.271-3.367,6.238-7.566,8.433-12.35c2.312-4.75,3.668-10.116,4.188-15.653
		c0.451-5.537,0.048-11.263-1.581-16.676c-1.513-5.4-4.134-10.487-7.439-14.458c-3.31-3.966-7.279-6.688-10.369-7.812
		c-1.465-0.648-2.937-0.752-3.792-0.862c-0.883-0.048-1.355-0.068-1.355-0.068s-0.068,0.459-0.216,1.306
		c-0.13,0.803-0.626,2.086-0.975,3.312c-0.921,2.646-2.424,5.666-4.107,8.961c-3.247,6.502-6.236,14.423-6.878,23.17
		c-0.322,4.332-0.294,8.815,0.417,13.217c0.609,4.373,1.752,8.664,3.119,12.49c1.034,2.813,3.094,8.562,4.506,11.772
		c-1.398,0.157-2.82,0.246-4.258,0.267c-0.812-0.783-1.625-1.574-2.417-2.402c-1.648-1.567-3.056-3.381-4.524-5.085
		c-1.461-1.697-2.618-3.594-3.889-5.318c-1.119-1.813-2.076-3.661-3.036-5.345c-0.729-1.828-1.412-3.532-2.046-5.12
		c-0.392-1.656-0.76-3.176-1.08-4.521c-0.409-1.321-0.251-2.563-0.378-3.531c-0.104-1.961-0.171-3.091-0.171-3.091
		s0.147,1.123,0.402,3.066c0.193,0.951,0.116,2.17,0.625,3.456c0.412,1.294,0.873,2.745,1.365,4.343
		c0.734,1.489,1.524,3.111,2.359,4.822c1.058,1.577,2.11,3.292,3.314,4.976c1.36,1.578,2.604,3.323,4.146,4.873
		c1.539,1.537,3.017,3.176,4.731,4.593c0.441,0.407,0.914,0.767,1.366,1.156c-0.606-1.602-1.241-3.329-1.891-5.112l-0.568-1.547
		c-1.552-4.339-2.678-8.856-3.266-13.083c-0.673-4.144-0.82-8.688-0.438-13.832c0.067-0.859,0.158-1.722,0.264-2.577
		c-2.688-3.251-5.617-6.071-8.481-8.408c-2.462-1.973-4.692-3.804-6.335-5.534c-0.705-0.835-1.535-1.658-1.918-2.236
		c-0.412-0.613-0.623-0.943-0.623-0.943s-0.365,0.18-1.034,0.525c-0.625,0.39-1.735,0.992-2.654,2.002
		c-2.011,1.956-4.141,5.467-5.33,9.71c-1.181,4.253-1.442,9.126-0.726,13.863c0.628,4.777,2.313,9.381,4.606,13.531
		c2.344,4.134,5.277,7.827,8.742,10.719c1.889,1.649,3.905,3.046,5.958,4.239c-17.23-5.287-29.797-21.34-29.797-40.282
		c0-23.229,18.902-42.132,42.132-42.132c23.23,0,42.131,18.906,42.131,42.132C90.023,64.562,80.276,78.953,66.205,85.787z"/>
</g>
<g>
</g>
<g>
</g>
<g>
</g>
<g>
</g>
<g>
</g>
<g>
</g>
<g>
</g>
<g>
</g>
<g>
</g>
<g>
</g>
<g>
</g>
<g>
</g>
<g>
</g>
<g>
</g>
<g>
</g>
</svg>
